<?xml version="1.0" encoding="UTF-8" standalone="no"?>
<!-- Created with Inkscape (http://www.inkscape.org/) -->

<svg
   xmlns:dc="http://purl.org/dc/elements/1.1/"
   xmlns:cc="http://creativecommons.org/ns#"
   xmlns:rdf="http://www.w3.org/1999/02/22-rdf-syntax-ns#"
   xmlns:svg="http://www.w3.org/2000/svg"
   xmlns="http://www.w3.org/2000/svg"
   xmlns:sodipodi="http://sodipodi.sourceforge.net/DTD/sodipodi-0.dtd"
   xmlns:inkscape="http://www.inkscape.org/namespaces/inkscape"
   width="307"
   height="50"
   viewBox="0 0 81.227079 13.229167"
   version="1.1"
   id="svg8"
   sodipodi:docname="logo.svg"
   inkscape:version="0.92.4 (5da689c313, 2019-01-14)">
  <defs
     id="defs2" />
  <sodipodi:namedview
     id="base"
     pagecolor="#ffffff"
     bordercolor="#666666"
     borderopacity="1.0"
     inkscape:pageopacity="0.0"
     inkscape:pageshadow="2"
     inkscape:zoom="0.49497475"
     inkscape:cx="168.41499"
     inkscape:cy="231.18105"
     inkscape:document-units="mm"
     inkscape:current-layer="layer1"
     showgrid="false"
     showguides="true"
     inkscape:guide-bbox="true"
     units="px"
     inkscape:window-width="1366"
     inkscape:window-height="705"
     inkscape:window-x="-8"
     inkscape:window-y="-8"
     inkscape:window-maximized="1" />
  <metadata
     id="metadata5">
    <rdf:RDF>
      <cc:Work
         rdf:about="">
        <dc:format>image/svg+xml</dc:format>
        <dc:type
           rdf:resource="http://purl.org/dc/dcmitype/StillImage" />
        <dc:title></dc:title>
      </cc:Work>
    </rdf:RDF>
  </metadata>
  <g
     inkscape:label="Camada 1"
     inkscape:groupmode="layer"
     id="layer1"
     transform="translate(0,-283.77082)">
    <g
       id="g1008"
       transform="matrix(0.98000005,0,0,0.98000005,17.759568,157.20122)">
      <g
         transform="matrix(0.71711467,0,0,0.71711467,-69.514577,50.085288)"
         id="g942">
        <path
           style="fill:#ed3237;fill-opacity:1;stroke:none;stroke-width:0.26507574px;stroke-linecap:butt;stroke-linejoin:miter;stroke-opacity:1"
           d="m 78.519509,110.44586 h 9.858751 l -4.744176,17.63979 H 72.818872 l 4.744177,-17.63979 z"
           id="path830"
           inkscape:connector-curvature="0" />
        <path
           style="fill:#00a859;fill-opacity:1;stroke:none;stroke-width:0.27768308px;stroke-linecap:butt;stroke-linejoin:miter;stroke-opacity:1"
           d="m 92.133967,110.44586 -5.206186,17.63979 h 12.639541 l 5.206188,-17.63979 z"
           id="path832"
           inkscape:connector-curvature="0" />
        <path
           style="fill:#3e4095;fill-opacity:1;stroke:none;stroke-width:0.26969981px;stroke-linecap:butt;stroke-linejoin:miter;stroke-opacity:1"
           d="m 108.2388,110.44586 -4.91113,17.63979 h 8.93787 l 4.91115,-17.63979 z"
           id="path834"
           inkscape:connector-curvature="0" />
        <path
           style="fill:#f58634;fill-opacity:1;stroke:none;stroke-width:0.27109101px;stroke-linecap:butt;stroke-linejoin:miter;stroke-opacity:1"
           d="m 120.68596,110.44586 -4.96193,17.63979 h 8.89004 l 4.96194,-17.63979 z"
           id="path836"
           inkscape:connector-curvature="0" />
      </g>
      <g
         id="text840"
         style="font-style:normal;font-variant:normal;font-weight:normal;font-stretch:normal;font-size:14.99692822px;line-height:1.25;font-family:'Segoe UI';-inkscape-font-specification:'Segoe UI';letter-spacing:0px;word-spacing:0px;fill:#ed3237;fill-opacity:1;stroke:none;stroke-width:2.81192374"
         transform="matrix(0.71711467,0,-0.22187605,0.71711467,-47.019438,36.906498)"
         aria-label="ZAPP">
        <path
           inkscape:connector-curvature="0"
           id="path860"
           style="font-style:normal;font-variant:normal;font-weight:bold;font-stretch:normal;line-height:15.44999981;font-family:Tahoma;-inkscape-font-specification:'Tahoma Bold';letter-spacing:3.32747817px;fill:#ed3237;fill-opacity:1;stroke:none;stroke-width:2.81192374"
           d="m 155.58781,140.04597 h -8.64813 v -2.04303 l 5.01606,-6.78084 h -4.75244 v -2.07965 h 8.0916 v 2.07965 l -5.00874,6.74422 h 5.30165 z" />
        <path
           inkscape:connector-curvature="0"
           id="path862"
           style="font-style:normal;font-variant:normal;font-weight:bold;font-stretch:normal;line-height:15.44999981;font-family:Tahoma;-inkscape-font-specification:'Tahoma Bold';letter-spacing:3.32747817px;fill:#ed3237;fill-opacity:1;stroke:none;stroke-width:2.81192374"
           d="m 159.17158,140.04597 3.68333,-10.90352 h 2.98767 l 3.68333,10.90352 h -2.81925 l -0.68101,-2.2261 h -3.42704 l -0.68101,2.2261 z m 6.2536,-4.20324 -1.11305,-3.59545 -1.11305,3.59545 z" />
        <path
           inkscape:connector-curvature="0"
           id="path864"
           style="font-style:normal;font-variant:normal;font-weight:bold;font-stretch:normal;line-height:15.44999981;font-family:Tahoma;-inkscape-font-specification:'Tahoma Bold';letter-spacing:3.32747817px;fill:#ed3237;fill-opacity:1;stroke:none;stroke-width:2.81192374"
           d="m 182.34363,132.58412 q 0,0.76157 -0.24165,1.4499 -0.24165,0.68834 -0.69566,1.14967 -0.27826,0.28559 -0.61511,0.52724 -0.32952,0.24164 -0.73227,0.41007 -0.40275,0.16842 -0.87873,0.26362 -0.46865,0.0952 -1.05447,0.0952 h -1.43525 v 3.56616 h -2.7387 v -10.90352 h 4.23253 q 0.94463,0 1.62565,0.17574 0.68833,0.16842 1.24486,0.54188 0.61511,0.41008 0.95195,1.09841 0.33685,0.68101 0.33685,1.62564 z m -2.81193,0.0659 q 0,-0.46133 -0.21968,-0.79085 -0.21968,-0.33685 -0.52723,-0.46134 -0.38811,-0.16842 -0.74692,-0.19039 -0.35149,-0.0293 -0.95928,-0.0293 h -0.3881 v 3.26593 h 0.19039 q 0.3881,0 0.73227,-0.007 0.34417,-0.007 0.60046,-0.0513 0.21969,-0.0366 0.46134,-0.13913 0.24897,-0.10984 0.38078,-0.24165 0.27826,-0.27094 0.37346,-0.56385 0.10251,-0.29291 0.10251,-0.79085 z" />
        <path
           inkscape:connector-curvature="0"
           id="path866"
           style="font-style:normal;font-variant:normal;font-weight:bold;font-stretch:normal;line-height:15.44999981;font-family:Tahoma;-inkscape-font-specification:'Tahoma Bold';letter-spacing:3.32747817px;fill:#ed3237;fill-opacity:1;stroke:none;stroke-width:2.81192374"
           d="m 195.54213,132.58412 q 0,0.76157 -0.24165,1.4499 -0.24165,0.68834 -0.69566,1.14967 -0.27826,0.28559 -0.6151,0.52724 -0.32953,0.24164 -0.73228,0.41007 -0.40275,0.16842 -0.87872,0.26362 -0.46866,0.0952 -1.05447,0.0952 h -1.43526 v 3.56616 h -2.73869 v -10.90352 h 4.23253 q 0.94463,0 1.62564,0.17574 0.68834,0.16842 1.24486,0.54188 0.61511,0.41008 0.95196,1.09841 0.33684,0.68101 0.33684,1.62564 z m -2.81192,0.0659 q 0,-0.46133 -0.21968,-0.79085 -0.21968,-0.33685 -0.52724,-0.46134 -0.3881,-0.16842 -0.74692,-0.19039 -0.35149,-0.0293 -0.95927,-0.0293 h -0.38811 v 3.26593 h 0.19039 q 0.38811,0 0.73228,-0.007 0.34416,-0.007 0.60046,-0.0513 0.21968,-0.0366 0.46133,-0.13913 0.24897,-0.10984 0.38078,-0.24165 0.27827,-0.27094 0.37346,-0.56385 0.10252,-0.29291 0.10252,-0.79085 z" />
      </g>
      <g
         id="text840-3"
         style="font-style:normal;font-variant:normal;font-weight:bold;font-stretch:normal;font-size:6.66853666px;line-height:1.25;font-family:'Trebuchet MS';-inkscape-font-specification:'Trebuchet MS Bold';letter-spacing:0.01366833px;word-spacing:0px;fill:#3e4095;fill-opacity:1;stroke:none;stroke-width:1.25035071"
         transform="matrix(0.71711467,0,-0.25088413,0.608855,-45.587515,53.016735)"
         aria-label="INFLÃVEIS">
        <path
           inkscape:connector-curvature="0"
           id="path869"
           style="font-style:normal;font-variant:normal;font-weight:bold;font-stretch:normal;line-height:15.44999981;font-family:'Trebuchet MS';-inkscape-font-specification:'Trebuchet MS Bold';letter-spacing:2.76489592px;fill:#3e4095;fill-opacity:1;stroke:none;stroke-width:1.25035071"
           d="m 149.87025,146.91594 v -4.77022 h 0.8466 v 4.77022 z" />
        <path
           inkscape:connector-curvature="0"
           id="path871"
           style="font-style:normal;font-variant:normal;font-weight:bold;font-stretch:normal;line-height:15.44999981;font-family:'Trebuchet MS';-inkscape-font-specification:'Trebuchet MS Bold';letter-spacing:2.76489592px;fill:#3e4095;fill-opacity:1;stroke:none;stroke-width:1.25035071"
           d="m 157.6105,146.98106 -2.3151,-3.01842 v 2.95656 h -0.81403 v -4.77348 h 0.40702 l 2.25323,2.87841 v -2.87841 h 0.81403 v 4.83534 z" />
        <path
           inkscape:connector-curvature="0"
           id="path873"
           style="font-style:normal;font-variant:normal;font-weight:bold;font-stretch:normal;line-height:15.44999981;font-family:'Trebuchet MS';-inkscape-font-specification:'Trebuchet MS Bold';letter-spacing:2.76489592px;fill:#3e4095;fill-opacity:1;stroke:none;stroke-width:1.25035071"
           d="m 162.54723,142.89789 v 1.11685 h 1.6769 v 0.7196 h -1.6769 v 2.1816 h -0.84659 v -4.77022 h 3.14216 v 0.75217 z" />
        <path
           inkscape:connector-curvature="0"
           id="path875"
           style="font-style:normal;font-variant:normal;font-weight:bold;font-stretch:normal;line-height:15.44999981;font-family:'Trebuchet MS';-inkscape-font-specification:'Trebuchet MS Bold';letter-spacing:2.76489592px;fill:#3e4095;fill-opacity:1;stroke:none;stroke-width:1.25035071"
           d="m 168.35986,146.91594 v -4.77022 h 0.84659 v 4.01806 h 2.15555 v 0.75216 z" />
        <path
           inkscape:connector-curvature="0"
           id="path877"
           style="font-style:normal;font-variant:normal;font-weight:bold;font-stretch:normal;line-height:15.44999981;font-family:'Trebuchet MS';-inkscape-font-specification:'Trebuchet MS Bold';letter-spacing:2.76489592px;fill:#3e4095;fill-opacity:1;stroke:none;stroke-width:1.25035071"
           d="m 177.59467,146.91594 -0.34841,-0.96707 h -1.63457 l -0.33212,0.96707 h -0.94102 l 1.90157,-4.83534 h 0.3712 l 1.91785,4.83534 z m -1.16895,-3.3766 -0.57308,1.76156 h 1.14616 z m 0.94753,-2.7384 -0.73588,0.95405 h -0.61867 l 0.55029,-0.95405 z" />
        <path
           inkscape:connector-curvature="0"
           id="path879"
           style="font-style:normal;font-variant:normal;font-weight:bold;font-stretch:normal;line-height:15.44999981;font-family:'Trebuchet MS';-inkscape-font-specification:'Trebuchet MS Bold';letter-spacing:2.76489592px;fill:#3e4095;fill-opacity:1;stroke:none;stroke-width:1.25035071"
           d="m 183.57336,146.98106 h -0.46563 l -1.78435,-4.83534 h 0.93125 l 1.10382,3.22356 1.16569,-3.22356 h 0.91172 z" />
        <path
           inkscape:connector-curvature="0"
           id="path881"
           style="font-style:normal;font-variant:normal;font-weight:bold;font-stretch:normal;line-height:15.44999981;font-family:'Trebuchet MS';-inkscape-font-specification:'Trebuchet MS Bold';letter-spacing:2.76489592px;fill:#3e4095;fill-opacity:1;stroke:none;stroke-width:1.25035071"
           d="m 189.54879,142.89789 v 1.11685 h 1.57596 v 0.7196 h -1.57596 v 1.42944 h 2.16206 v 0.75216 h -3.00866 v -4.77022 h 3.04448 v 0.75217 z" />
        <path
           inkscape:connector-curvature="0"
           id="path883"
           style="font-style:normal;font-variant:normal;font-weight:bold;font-stretch:normal;line-height:15.44999981;font-family:'Trebuchet MS';-inkscape-font-specification:'Trebuchet MS Bold';letter-spacing:2.76489592px;fill:#3e4095;fill-opacity:1;stroke:none;stroke-width:1.25035071"
           d="m 195.2735,146.91594 v -4.77022 h 0.84659 v 4.77022 z" />
        <path
           inkscape:connector-curvature="0"
           id="path885"
           style="font-style:normal;font-variant:normal;font-weight:bold;font-stretch:normal;line-height:15.44999981;font-family:'Trebuchet MS';-inkscape-font-specification:'Trebuchet MS Bold';letter-spacing:2.76489592px;fill:#3e4095;fill-opacity:1;stroke:none;stroke-width:1.25035071"
           d="m 199.65668,146.65219 0.31259,-0.75867 q 0.50144,0.35166 0.98661,0.35166 0.74565,0 0.74565,-0.52098 0,-0.24421 -0.17583,-0.46563 -0.17583,-0.22141 -0.72612,-0.49493 -0.54703,-0.27677 -0.73914,-0.4526 -0.18885,-0.17908 -0.29305,-0.42329 -0.10094,-0.24421 -0.10094,-0.54052 0,-0.55354 0.40376,-0.91823 0.40702,-0.36468 1.04196,-0.36468 0.82706,0 1.21453,0.30933 l -0.25723,0.72937 q -0.44609,-0.3191 -0.94102,-0.3191 -0.29305,0 -0.45586,0.1563 -0.15955,0.15303 -0.15955,0.4005 0,0.41027 0.90846,0.8531 0.47865,0.23444 0.6903,0.43307 0.21165,0.19536 0.32236,0.45911 0.1107,0.26049 0.1107,0.58284 0,0.57959 -0.45911,0.95405 -0.45586,0.37445 -1.2243,0.37445 -0.66751,0 -1.20477,-0.34515 z" />
      </g>
    </g>
  </g>
</svg>
